<mxfile host="app.diagrams.net" modified="2021-08-11T13:28:44.473Z" agent="5.0 (Windows NT 10.0; Win64; x64) AppleWebKit/537.36 (KHTML, like Gecko) Chrome/92.0.4515.131 Safari/537.36" etag="uVPjjeLihVWOKv9_h0IJ" version="14.9.6" type="github">
  <diagram id="nPUzKy37fiZRvVxnJjAu" name="Page-1">
    <mxGraphModel dx="1396" dy="786" grid="1" gridSize="10" guides="1" tooltips="1" connect="1" arrows="1" fold="1" page="1" pageScale="1" pageWidth="827" pageHeight="1169" math="0" shadow="0">
      <root>
        <mxCell id="0" />
        <mxCell id="1" parent="0" />
        <mxCell id="UCgNyJoYKYaM5vk7wW32-1" value="&lt;font style=&quot;font-size: 18px&quot;&gt;DVD&lt;/font&gt;" style="rounded=0;whiteSpace=wrap;html=1;" vertex="1" parent="1">
          <mxGeometry x="210" y="220" width="170" height="60" as="geometry" />
        </mxCell>
        <mxCell id="UCgNyJoYKYaM5vk7wW32-2" value="&lt;font style=&quot;font-size: 18px&quot;&gt;Filme&lt;/font&gt;" style="rounded=0;whiteSpace=wrap;html=1;" vertex="1" parent="1">
          <mxGeometry x="210" y="60" width="170" height="60" as="geometry" />
        </mxCell>
        <mxCell id="UCgNyJoYKYaM5vk7wW32-4" value="&lt;font style=&quot;font-size: 18px&quot;&gt;Clientes&lt;/font&gt;" style="rounded=0;whiteSpace=wrap;html=1;" vertex="1" parent="1">
          <mxGeometry x="510" y="470" width="170" height="60" as="geometry" />
        </mxCell>
        <mxCell id="UCgNyJoYKYaM5vk7wW32-5" value="&lt;font style=&quot;font-size: 18px&quot;&gt;Atores&lt;/font&gt;" style="rounded=0;whiteSpace=wrap;html=1;" vertex="1" parent="1">
          <mxGeometry x="100" y="470" width="170" height="60" as="geometry" />
        </mxCell>
        <mxCell id="UCgNyJoYKYaM5vk7wW32-6" value="&lt;font style=&quot;font-size: 18px&quot;&gt;Categoria&lt;/font&gt;" style="rounded=0;whiteSpace=wrap;html=1;" vertex="1" parent="1">
          <mxGeometry x="490" y="220" width="170" height="60" as="geometry" />
        </mxCell>
      </root>
    </mxGraphModel>
  </diagram>
</mxfile>
